<mxfile host="app.diagrams.net" modified="2024-05-14T06:27:30.767Z" agent="Mozilla/5.0 (Windows NT 10.0; Win64; x64) AppleWebKit/537.36 (KHTML, like Gecko) Chrome/124.0.0.0 Safari/537.36" version="24.4.0" etag="ePOVGYIL-7iCosnGwGpz" type="github">
  <diagram name="第 1 页" id="jm84hPZxOIyfO_ypoDXl">
    <mxGraphModel>
      <root>
        <mxCell id="0" />
        <mxCell id="1" parent="0" />
      </root>
    </mxGraphModel>
  </diagram>
</mxfile>
